<svg width="300" height="200" viewBox="0 0 300 200" fill="none" xmlns="http://www.w3.org/2000/svg">
<path d="M146.088 15.0048C145.197 15.0145 144.3 15.0455 143.401 15.1035C132.2 15.8267 121.885 20.4202 113.881 27.5103C104.323 20.0896 92.2679 15.9158 79.4048 16.7478C59.1689 18.0541 41.8059 31.9765 35.7787 50.4684C19.8802 56.5163 8.07756 71.8338 6.85177 89.5767C6.02084 101.603 9.95543 112.869 16.9439 121.762C16.8755 122.376 16.8222 122.996 16.7793 123.616C14.9448 150.168 36.3335 173.041 62.5572 174.733C68.3344 175.106 73.9533 174.476 79.2528 172.989C87.1338 179.667 97.1336 183.973 107.95 184.671C121.861 185.569 134.834 180.603 144.72 172.023C152.945 180.052 163.975 185.308 176.028 186.086C192.371 187.141 207.422 180.108 217.691 168.622C223.205 171.26 229.267 172.908 235.605 173.317C264.382 175.175 289.133 151.963 290.86 123.513C291.453 113.755 289.353 104.3 285.189 95.9136C285.916 93.1937 286.405 90.3873 286.604 87.5106C288.061 66.4316 274.877 47.6652 256.262 39.9777C245.988 28.3066 230.816 21.1312 214.324 22.1959C203.658 22.8845 193.786 27.072 185.957 33.5935C176.228 22.151 161.868 14.8285 146.094 14.9998L146.088 15.0048Z" fill="url(#paint0_radial_1008_3)" stroke="#7CA2CE" stroke-width="0.35103"/>
<path d="M146.116 16.9916C145.24 17.0012 144.356 17.0317 143.471 17.0888C132.449 17.8004 122.298 22.3209 114.422 29.298C105.014 21.9983 93.1509 17.8905 80.4924 18.7077C60.5785 19.9933 43.4903 33.6939 37.5614 51.892C21.9157 57.8437 10.3008 72.9176 9.09467 90.3754C9.01953 91.4629 8.98397 92.5403 8.98672 93.614C73.2147 80.8298 166.771 71.5328 284.5 85.291C284.532 65.8043 271.948 48.7629 254.532 41.5703C244.421 30.0849 229.491 23.0236 213.262 24.0714C202.765 24.7491 193.05 28.87 185.345 35.2875C175.771 24.0268 161.639 16.8209 146.114 16.9897L146.116 16.9916Z" fill="url(#paint1_linear_1008_3)"/>
<defs>
<radialGradient id="paint0_radial_1008_3" cx="0" cy="0" r="1" gradientUnits="userSpaceOnUse" gradientTransform="translate(153.117 77.9006) rotate(87.1419) scale(114.082 552.903)">
<stop stop-color="#048181"/>
<stop offset="1" stop-color="#048181"/>
</radialGradient>
<linearGradient id="paint1_linear_1008_3" x1="145.343" y1="29.6871" x2="148.484" y2="104.711" gradientUnits="userSpaceOnUse">
<stop stop-color="white" stop-opacity="0.85246"/>
<stop offset="1" stop-color="#048181" stop-opacity="0"/>
</linearGradient>
</defs>
</svg>
